<?xml version="1.0" encoding="UTF-8" standalone="no"?>
<!-- Created with Inkscape (http://www.inkscape.org/) -->

<svg
   width="630.70099"
   height="454.29901"
   viewBox="0 0 166.87349 120.20069"
   version="1.1"
   id="svg5"
   inkscape:version="1.2.2 (732a01da63, 2022-12-09)"
   sodipodi:docname="marcaCHOCLON.svg"
   inkscape:export-filename="marcaCHOCLON.png"
   inkscape:export-xdpi="96"
   inkscape:export-ydpi="96"
   xmlns:inkscape="http://www.inkscape.org/namespaces/inkscape"
   xmlns:sodipodi="http://sodipodi.sourceforge.net/DTD/sodipodi-0.dtd"
   xmlns="http://www.w3.org/2000/svg"
   xmlns:svg="http://www.w3.org/2000/svg">
  <sodipodi:namedview
     id="namedview7"
     pagecolor="#ffffff"
     bordercolor="#000000"
     borderopacity="0.25"
     inkscape:showpageshadow="2"
     inkscape:pageopacity="0.0"
     inkscape:pagecheckerboard="0"
     inkscape:deskcolor="#d1d1d1"
     inkscape:document-units="mm"
     showgrid="false"
     inkscape:zoom="0.4204826"
     inkscape:cx="302.0339"
     inkscape:cy="137.93674"
     inkscape:window-width="1024"
     inkscape:window-height="705"
     inkscape:window-x="-8"
     inkscape:window-y="-8"
     inkscape:window-maximized="1"
     inkscape:current-layer="layer1" />
  <defs
     id="defs2" />
  <g
     inkscape:label="Capa 1"
     inkscape:groupmode="layer"
     id="layer1">
    <path
       id="path7008"
       style="opacity:0.98;fill:none;fill-opacity:1;stroke:#ffffff;stroke-width:1.95914;stroke-linecap:round;stroke-linejoin:miter;stroke-dasharray:none;stroke-opacity:1"
       sodipodi:type="inkscape:offset"
       inkscape:radius="0"
       inkscape:original="M 67.306641 41.199219 A 4.8698344 6.3860097 0 0 0 62.4375 47.585938 A 4.8698344 6.3860097 0 0 0 67.306641 53.972656 A 4.8698344 6.3860097 0 0 0 72.175781 47.585938 A 4.8698344 6.3860097 0 0 0 67.306641 41.199219 z "
       d="m 67.306641,41.199219 a 4.8698344,6.3860097 0 0 0 -4.869141,6.386719 4.8698344,6.3860097 0 0 0 4.869141,6.386718 4.8698344,6.3860097 0 0 0 4.86914,-6.386718 4.8698344,6.3860097 0 0 0 -4.86914,-6.386719 z"
       transform="matrix(2.3962043,0,0,2.5855818,-94.041424,-100.0196)" />
    <path
       id="path7008-7"
       style="opacity:0.98;fill:none;fill-opacity:1;stroke:#ffffff;stroke-width:1.95914;stroke-linecap:round;stroke-linejoin:miter;stroke-dasharray:none;stroke-opacity:1"
       sodipodi:type="inkscape:offset"
       inkscape:radius="0"
       inkscape:original="M 67.306641 41.199219 A 4.8698344 6.3860097 0 0 0 62.4375 47.585938 A 4.8698344 6.3860097 0 0 0 67.306641 53.972656 A 4.8698344 6.3860097 0 0 0 72.175781 47.585938 A 4.8698344 6.3860097 0 0 0 67.306641 41.199219 z "
       d="m 67.306641,41.199219 a 4.8698344,6.3860097 0 0 0 -4.869141,6.386719 4.8698344,6.3860097 0 0 0 4.869141,6.386718 4.8698344,6.3860097 0 0 0 4.86914,-6.386718 4.8698344,6.3860097 0 0 0 -4.86914,-6.386719 z"
       transform="matrix(2.3962043,0,0,2.5855818,-63.080728,-100.0196)" />
    <path
       style="opacity:0.98;fill:none;fill-opacity:1;stroke:#ffffff;stroke-width:5.06772;stroke-linecap:round;stroke-linejoin:miter;stroke-dasharray:none;stroke-opacity:1"
       d="M 47.620056,60.27691 H 117.98681"
       id="path7136" />
    <path
       style="opacity:0.98;fill:none;fill-opacity:1;stroke:#ffffff;stroke-width:5.77169;stroke-linecap:round;stroke-linejoin:miter;stroke-dasharray:none;stroke-opacity:1"
       d="M 68.53798,105.32238 V 80.843199 L 96.3749,103.99048 V 79.367619"
       id="path7138"
       sodipodi:nodetypes="cccc" />
    <path
       id="path15382"
       style="opacity:1;fill:none;fill-opacity:1;stroke:#ffffff;stroke-width:5.88534;stroke-dasharray:none;stroke-opacity:1;paint-order:markers fill stroke"
       sodipodi:type="inkscape:offset"
       inkscape:radius="0"
       inkscape:original="M 118.24609 5.1484375 C 118.24609 93.755814 118.35352 2.3044713 118.35352 116.46094 C 138.7935 116.46126 163.37314 91.389902 163.37305 60.462891 C 163.37296 29.536086 138.68594 5.1481155 118.24609 5.1484375 z "
       d="m 118.24609,5.1484375 c 0,88.6073765 0.10743,-2.8439662 0.10743,111.3125025 20.43998,3.2e-4 45.01962,-25.071038 45.01953,-55.998049 -9e-5,-30.926805 -24.68711,-55.3147755 -45.12696,-55.3144535 z" />
    <path
       id="path15382-0"
       style="fill:none;fill-opacity:1;stroke:#ffffff;stroke-width:5.88534;stroke-dasharray:none;stroke-opacity:1;paint-order:markers fill stroke"
       sodipodi:type="inkscape:offset"
       inkscape:radius="0"
       inkscape:original="M 118.24609 5.1484375 C 118.24609 93.755814 118.35352 2.3044713 118.35352 116.46094 C 138.7935 116.46126 163.37314 91.389902 163.37305 60.462891 C 163.37296 29.536086 138.68594 5.1481155 118.24609 5.1484375 z "
       d="m 118.24609,5.1484375 c 0,88.6073765 0.10743,-2.8439662 0.10743,111.3125025 20.43998,3.2e-4 45.01962,-25.071038 45.01953,-55.998049 -9e-5,-30.926805 -24.68711,-55.3147755 -45.12696,-55.3144535 z"
       transform="matrix(-1,0,0,1,165.97896,0.23170526)" />
  </g>
</svg>
